<?xml version="1.0" standalone="no"?>
<!DOCTYPE svg PUBLIC "-//W3C//DTD SVG 20010904//EN"
 "http://www.w3.org/TR/2001/REC-SVG-20010904/DTD/svg10.dtd">
<svg version="1.0" xmlns="http://www.w3.org/2000/svg"
 width="225.000000pt" height="225.000000pt" viewBox="0 0 225.000000 225.000000"
 preserveAspectRatio="xMidYMid meet">

<g transform="translate(0.000000,225.000000) scale(0.100000,-0.100000)"
fill="#000000" stroke="none">
<path d="M1505 1351 c-99 -59 -262 -154 -363 -210 -100 -57 -185 -108 -188
-113 -3 -5 11 -24 30 -43 79 -74 190 -71 267 6 l40 40 72 -42 c103 -60 100
-57 77 -89 -38 -53 -96 -101 -160 -133 -60 -30 -72 -32 -165 -32 -93 0 -105 2
-167 33 -47 23 -84 52 -125 96 l-57 63 -110 -65 c-61 -36 -113 -67 -115 -69
-12 -9 54 -52 289 -187 163 -93 265 -146 283 -146 35 0 40 3 317 162 124 72
235 141 248 154 22 25 22 27 22 349 0 178 -3 326 -7 328 -5 2 -89 -44 -188
-102z m-35 -176 c0 -18 5 -25 20 -25 15 0 20 -7 20 -25 0 -18 -5 -25 -19 -25
-13 0 -21 -8 -23 -22 -2 -15 -11 -24 -25 -26 -19 -3 -23 1 -23 22 0 21 -5 26
-25 26 -20 0 -25 5 -25 25 0 20 5 25 25 25 20 0 25 5 25 25 0 20 5 25 25 25
20 0 25 -5 25 -25z m160 0 c0 -20 5 -25 25 -25 20 0 25 -5 25 -25 0 -20 -5
-25 -25 -25 -20 0 -25 -5 -25 -26 0 -21 -4 -25 -22 -22 -15 2 -24 11 -26 26
-2 14 -10 22 -23 22 -14 0 -19 7 -19 25 0 18 5 25 20 25 15 0 20 7 20 25 0 20
5 25 25 25 20 0 25 -5 25 -25z"/>
</g>
</svg>
