<?xml version="1.0" standalone="no"?>
<!DOCTYPE svg PUBLIC "-//W3C//DTD SVG 20010904//EN"
 "http://www.w3.org/TR/2001/REC-SVG-20010904/DTD/svg10.dtd">
<svg version="1.0" xmlns="http://www.w3.org/2000/svg"
 width="180.000000pt" height="180.000000pt" viewBox="0 0 180.000000 180.000000"
 preserveAspectRatio="xMidYMid meet">

<g transform="translate(0.000000,180.000000) scale(0.100000,-0.100000)"
fill="#000000" stroke="none">
<path d="M859 1691 l-44 -39 34 -36 c19 -20 45 -36 56 -36 27 0 55 -29 55 -56
0 -26 60 -84 86 -84 52 0 73 -77 30 -105 -37 -25 -86 4 -86 51 0 11 -13 33
-30 49 l-30 29 0 -86 c0 -64 4 -89 15 -98 24 -20 19 -67 -10 -86 -53 -34 -106
27 -71 81 22 33 23 190 1 211 -8 9 -15 25 -15 38 0 12 -16 37 -35 56 l-35 34
-101 -99 c-55 -55 -105 -108 -110 -118 -9 -15 13 -42 138 -168 81 -83 161
-160 176 -171 l28 -20 160 159 c88 87 165 166 170 176 9 15 -14 42 -138 168
-81 83 -160 159 -174 170 l-27 19 -43 -39z"/>
<path d="M934 1001 c-59 -36 -52 -120 11 -141 60 -20 105 12 105 77 0 38 -4
46 -32 63 -41 25 -45 25 -84 1z"/>
<path d="M1230 880 c-14 -51 -53 -97 -90 -105 -26 -6 -30 -11 -30 -40 0 -32 2
-34 38 -37 l37 -3 5 -173 5 -174 27 -23 c40 -34 109 -42 187 -21 36 9 66 18
68 19 1 2 -2 19 -7 38 l-10 36 -57 -5 c-80 -7 -83 0 -83 170 l0 138 70 0 70 0
0 40 0 40 -70 0 -70 0 0 70 0 70 -40 0 c-37 0 -40 -2 -50 -40z"/>
<path d="M460 759 c-19 -6 -47 -20 -62 -31 -78 -55 -86 -185 -15 -250 l30 -29
-41 -41 c-47 -46 -55 -83 -22 -113 20 -18 20 -19 1 -39 -36 -38 -44 -75 -23
-110 31 -54 80 -71 212 -71 103 0 120 3 164 25 68 34 90 67 90 135 0 95 -42
121 -219 131 -129 7 -130 8 -110 38 15 22 23 25 89 24 128 0 196 54 196 157 0
28 -6 60 -15 71 -18 26 -11 34 32 34 31 0 33 2 33 35 l0 35 -72 0 c-40 0 -109
2 -153 5 -44 2 -96 0 -115 -6z m151 -98 c71 -71 -3 -174 -101 -140 -36 13 -50
35 -50 81 0 81 93 117 151 59z m27 -422 c33 -13 38 -37 13 -62 -18 -18 -35
-22 -99 -25 -87 -3 -125 10 -130 47 -7 45 19 58 111 53 45 -3 92 -8 105 -13z"/>
<path d="M866 748 c-10 -39 -7 -46 24 -57 l31 -10 -3 -158 -3 -158 -27 -3
c-25 -3 -28 -8 -28 -38 l0 -34 125 0 125 0 0 34 c0 30 -3 35 -27 38 l-28 3 -3
203 -2 202 -89 0 c-83 0 -89 -1 -95 -22z"/>
</g>
</svg>
