<?xml version="1.0" standalone="no"?>
<!DOCTYPE svg PUBLIC "-//W3C//DTD SVG 20010904//EN"
 "http://www.w3.org/TR/2001/REC-SVG-20010904/DTD/svg10.dtd">
<svg version="1.0" xmlns="http://www.w3.org/2000/svg"
 width="310.000000pt" height="163.000000pt" viewBox="0 0 310.000000 163.000000"
 preserveAspectRatio="xMidYMid meet">

<g transform="translate(0.000000,163.000000) scale(0.100000,-0.100000)"
fill="#000000" stroke="none">
<path d="M1444 1560 c-394 -55 -684 -408 -661 -807 12 -216 112 -414 276 -549
59 -50 191 -123 247 -139 39 -10 54 18 54 102 l0 75 -49 -7 c-62 -8 -148 15
-178 47 -11 13 -33 47 -49 76 -15 30 -45 67 -66 84 -43 34 -47 44 -18 53 31
10 106 -31 130 -70 30 -48 73 -81 114 -89 42 -8 116 9 116 27 0 7 9 30 19 50
21 42 21 41 -42 52 -108 18 -193 79 -239 172 -29 59 -33 78 -36 168 -4 88 -1
108 18 153 12 28 28 57 36 63 11 9 12 28 8 78 -4 39 -2 83 5 109 11 39 14 42
46 42 20 0 65 -16 109 -39 71 -36 78 -38 118 -29 55 14 240 14 295 1 38 -10
47 -7 118 28 43 22 92 39 110 39 30 0 33 -3 44 -44 12 -51 13 -111 2 -141 -6
-14 0 -30 19 -57 40 -55 53 -114 48 -215 -9 -182 -100 -290 -274 -325 -33 -7
-60 -13 -61 -13 -2 -1 6 -19 17 -40 17 -34 20 -59 20 -181 0 -195 2 -196 145
-130 145 68 267 187 344 335 227 437 -3 968 -476 1100 -85 23 -224 33 -309 21z"/>
<path d="M1085 430 c3 -5 8 -10 11 -10 2 0 4 5 4 10 0 6 -5 10 -11 10 -5 0 -7
-4 -4 -10z"/>
<path d="M1115 390 c3 -5 8 -10 11 -10 2 0 4 5 4 10 0 6 -5 10 -11 10 -5 0 -7
-4 -4 -10z"/>
<path d="M1150 350 c0 -5 5 -10 10 -10 6 0 10 5 10 10 0 6 -4 10 -10 10 -5 0
-10 -4 -10 -10z"/>
<path d="M1200 320 c0 -5 7 -10 16 -10 8 0 12 5 9 10 -3 6 -10 10 -16 10 -5 0
-9 -4 -9 -10z"/>
<path d="M1265 310 c-3 -5 1 -10 9 -10 9 0 16 5 16 10 0 6 -4 10 -9 10 -6 0
-13 -4 -16 -10z"/>
<path d="M1325 310 c4 -6 11 -8 16 -5 14 9 11 15 -7 15 -8 0 -12 -5 -9 -10z"/>
</g>
</svg>
