<?xml version="1.0" standalone="no"?>
<!DOCTYPE svg PUBLIC "-//W3C//DTD SVG 20010904//EN"
 "http://www.w3.org/TR/2001/REC-SVG-20010904/DTD/svg10.dtd">
<svg version="1.0" xmlns="http://www.w3.org/2000/svg"
 width="87.000000pt" height="160.000000pt" viewBox="0 0 87.000000 160.000000"
 preserveAspectRatio="xMidYMid meet">

<g transform="translate(0.000000,160.000000) scale(0.100000,-0.100000)"
fill="#000000" stroke="none">
<path d="M735 993 c34 -8 55 -34 55 -70 0 -25 -9 -42 -40 -73 l-41 -41 38 20
c48 24 71 50 79 87 8 43 -20 74 -71 78 -22 2 -31 1 -20 -1z"/>
<path d="M181 962 c-78 -30 -46 -48 104 -58 92 -7 279 9 318 27 19 8 17 9 -8
4 -72 -12 -341 -17 -367 -6 -34 13 -35 24 -5 39 35 17 7 13 -42 -6z"/>
<path d="M225 840 c-19 -30 48 -50 169 -50 49 0 118 5 154 11 53 9 62 14 50
24 -10 10 -25 11 -58 5 -77 -15 -253 -12 -276 5 -23 17 -31 18 -39 5z"/>
<path d="M260 730 c-21 -13 3 -35 55 -50 76 -21 297 1 271 28 -4 4 -70 7 -145
7 -92 0 -143 4 -152 12 -9 7 -20 8 -29 3z"/>
<path d="M82 642 c-41 -20 -38 -44 8 -54 119 -26 445 -25 573 2 80 16 66 23
-19 9 -38 -6 -145 -11 -239 -12 -225 -1 -332 21 -280 60 27 19 -1 16 -43 -5z"/>
<path d="M787 574 c-44 -24 -169 -45 -317 -53 -125 -7 -129 -8 -45 -9 159 -3
331 25 380 62 26 20 18 19 -18 0z"/>
<path d="M80 276 c0 -156 -7 -201 -37 -224 -25 -18 -3 -38 26 -23 43 24 51 59
51 236 0 158 -1 165 -20 165 -19 0 -20 -7 -20 -154z"/>
<path d="M211 342 c-46 -14 -37 -32 12 -26 58 8 89 -8 85 -44 -2 -22 -9 -28
-33 -30 -80 -7 -105 -26 -105 -77 0 -58 54 -81 115 -49 19 10 31 11 33 5 2 -6
10 -11 18 -11 19 0 20 188 1 214 -15 20 -86 30 -126 18z m99 -153 c0 -35 -22
-58 -56 -59 -26 0 -44 18 -44 47 0 27 24 42 68 43 29 0 32 -3 32 -31z"/>
<path d="M671 341 c-14 -4 -26 -12 -28 -18 -3 -9 9 -11 44 -6 39 4 53 2 67
-12 27 -27 17 -59 -19 -63 -80 -7 -105 -26 -105 -77 0 -58 52 -80 113 -49 21
12 32 13 35 5 2 -6 10 -11 18 -11 11 0 14 20 14 98 0 53 -4 102 -8 108 -20 30
-76 41 -131 25z m99 -155 c0 -28 -5 -36 -31 -46 -37 -16 -62 -5 -67 29 -5 33
16 51 59 51 38 0 39 -1 39 -34z"/>
<path d="M416 263 c13 -43 29 -95 35 -115 8 -33 14 -38 39 -38 35 0 48 21 79
131 26 93 26 99 1 99 -13 0 -21 -9 -25 -27 -16 -74 -39 -154 -46 -158 -4 -3
-10 7 -14 23 -3 15 -15 57 -26 95 -17 58 -23 67 -43 67 l-24 0 24 -77z"/>
</g>
</svg>
