<?xml version="1.0" standalone="no"?>
<!DOCTYPE svg PUBLIC "-//W3C//DTD SVG 20010904//EN"
 "http://www.w3.org/TR/2001/REC-SVG-20010904/DTD/svg10.dtd">
<svg version="1.0" xmlns="http://www.w3.org/2000/svg"
 width="225.000000pt" height="225.000000pt" viewBox="0 0 225.000000 225.000000"
 preserveAspectRatio="xMidYMid meet">

<g transform="translate(0.000000,225.000000) scale(0.100000,-0.100000)"
fill="#000000" stroke="none">
<path d="M460 1448 l1 -343 60 63 c33 35 56 68 53 74 -4 7 -2 8 5 4 7 -5 35
17 71 56 33 35 134 140 225 233 90 94 177 187 192 207 15 20 35 39 43 41 8 3
-135 5 -317 6 l-333 1 0 -342z m160 -172 c0 -2 -7 -7 -16 -10 -8 -3 -12 -2 -9
4 6 10 25 14 25 6z m-107 -95 c-15 -16 -30 -27 -32 -25 -6 6 40 54 51 54 5 0
-3 -13 -19 -29z"/>
<path d="M1092 1080 c-17 -16 -35 -30 -41 -30 -6 0 -11 -6 -11 -13 0 -15 -54
-67 -70 -67 -5 0 -10 -6 -10 -13 0 -16 -52 -67 -68 -67 -7 0 -12 -5 -12 -11 0
-15 -52 -69 -67 -69 -7 0 -13 -6 -13 -13 0 -16 -52 -67 -68 -67 -7 0 -12 -6
-12 -13 0 -16 -52 -67 -68 -67 -7 0 -12 -6 -12 -13 0 -16 -52 -67 -68 -67 -7
0 3 14 22 31 19 16 38 39 41 50 4 11 9 18 11 16 7 -7 61 47 56 56 -2 4 2 7 7
7 6 0 11 8 11 18 0 14 2 15 10 2 5 -8 10 -10 10 -4 0 5 -5 15 -11 21 -15 15
-1 37 14 24 8 -6 16 -4 25 5 10 11 10 14 -5 12 -10 0 -37 0 -60 0 l-43 2 0 40
0 40 -40 0 -40 0 0 40 0 40 -50 0 -50 0 -1 38 c-1 20 -5 48 -9 62 -4 14 -8
-113 -9 -282 -1 -170 2 -308 6 -308 4 0 27 19 50 42 24 23 43 38 43 33 -1 -13
-64 -81 -82 -88 -7 -3 281 -6 640 -6 358 -1 652 2 652 6 0 15 -435 441 -444
436 -6 -3 -8 -3 -4 1 4 5 -9 26 -29 47 -30 33 -39 37 -52 26 -14 -10 -14 -10
-4 4 11 13 5 22 -33 58 -44 43 -45 43 -67 25 l-22 -19 18 22 c18 21 16 43 -3
43 -5 0 -22 -13 -38 -30z m-418 -365 c-7 -16 -24 -21 -24 -6 0 8 7 13 27 20 1
1 0 -6 -3 -14z m1041 -205 c10 -11 16 -20 13 -20 -3 0 -13 9 -23 20 -10 11
-16 20 -13 20 3 0 13 -9 23 -20z"/>
<path d="M480 1089 c0 -5 5 -7 10 -4 6 3 10 8 10 11 0 2 -4 4 -10 4 -5 0 -10
-5 -10 -11z"/>
</g>
</svg>
