<?xml version="1.0" standalone="no"?>
<!DOCTYPE svg PUBLIC "-//W3C//DTD SVG 20010904//EN"
 "http://www.w3.org/TR/2001/REC-SVG-20010904/DTD/svg10.dtd">
<svg version="1.0" xmlns="http://www.w3.org/2000/svg"
 width="275.000000pt" height="183.000000pt" viewBox="0 0 275.000000 183.000000"
 preserveAspectRatio="xMidYMid meet">

<g transform="translate(0.000000,183.000000) scale(0.100000,-0.100000)"
fill="#000000" stroke="none">
<path d="M1652 1448 c-20 -20 -14 -52 18 -95 17 -23 39 -67 50 -99 11 -32 27
-65 36 -75 13 -14 14 -24 5 -56 -26 -93 3 -213 52 -213 25 0 37 16 37 51 0 28
16 23 30 -10 6 -16 25 -42 43 -57 l31 -29 -19 30 c-11 17 -33 56 -51 88 -26
49 -33 56 -43 43 -7 -8 -15 -33 -18 -56 -7 -50 -19 -51 -39 -3 -16 36 -15 114
1 176 5 20 3 33 -9 46 -9 10 -27 45 -40 78 -13 33 -35 78 -50 99 -14 21 -26
44 -26 51 0 21 42 15 85 -12 22 -13 53 -25 69 -25 42 0 108 -35 166 -87 65
-58 98 -107 144 -213 44 -100 56 -115 105 -131 40 -13 131 -70 131 -81 0 -5
-15 -8 -34 -8 -42 0 -86 -16 -86 -30 0 -17 48 -58 106 -89 69 -37 58 -10 -15
40 -28 19 -51 37 -51 41 0 4 12 10 28 13 15 3 41 9 57 14 l30 7 -39 36 c-21
20 -65 51 -98 68 -59 32 -60 33 -114 145 -32 67 -73 134 -99 163 -59 66 -142
120 -202 132 -26 5 -70 21 -97 35 -55 28 -76 31 -94 13z"/>
<path d="M1800 1322 c0 -4 7 -16 15 -26 15 -19 15 -19 15 1 0 11 -7 23 -15 27
-8 3 -15 2 -15 -2z"/>
<path d="M338 779 c-16 -9 -18 -28 -18 -159 l0 -150 30 0 29 0 3 138 3 137 35
-75 c88 -191 91 -195 136 -198 25 -2 45 2 51 10 6 7 36 69 67 138 l55 125 1
-137 0 -138 35 0 35 0 0 144 c0 164 -5 176 -70 176 -47 0 -51 -5 -115 -150
-26 -58 -50 -108 -54 -113 -4 -4 -31 48 -60 115 -29 68 -60 129 -69 136 -19
14 -70 15 -94 1z"/>
<path d="M860 609 c0 -44 5 -89 10 -99 14 -26 71 -40 168 -40 75 0 82 -2 82
-20 0 -31 -32 -40 -149 -40 -104 0 -111 -1 -111 -20 0 -19 7 -20 120 -20 129
0 180 12 199 48 6 12 11 75 11 146 l0 126 -35 0 -35 0 0 -90 0 -91 -92 3 -93
3 -3 88 -3 87 -34 0 -35 0 0 -81z"/>
</g>
</svg>
