<?xml version="1.0" standalone="no"?>
<!DOCTYPE svg PUBLIC "-//W3C//DTD SVG 20010904//EN"
 "http://www.w3.org/TR/2001/REC-SVG-20010904/DTD/svg10.dtd">
<svg version="1.0" xmlns="http://www.w3.org/2000/svg"
 width="225.000000pt" height="225.000000pt" viewBox="0 0 225.000000 225.000000"
 preserveAspectRatio="xMidYMid meet">

<g transform="translate(0.000000,225.000000) scale(0.100000,-0.100000)"
fill="#000000" stroke="none">
<path d="M720 1601 c-19 -11 -44 -22 -55 -26 -13 -5 -15 -9 -7 -12 8 -3 4 -16
-16 -41 -65 -84 -162 -288 -162 -339 0 -11 -7 -34 -16 -51 -8 -18 -12 -37 -8
-44 5 -7 2 -9 -9 -5 -9 3 -18 1 -21 -6 -2 -7 -5 -3 -5 8 -1 11 -5 27 -10 34
-6 10 -8 0 -4 -28 6 -42 5 -43 -18 -35 -13 4 -33 6 -44 5 -11 -2 -75 -4 -142
-5 -117 -1 -123 0 -124 19 -1 16 -2 16 -8 -5 l-7 -25 -11 30 -11 30 -3 -30
c-1 -22 -4 -17 -9 20 -10 64 -12 427 -2 441 4 6 16 16 27 22 15 9 16 11 4 12
-9 0 -24 -9 -35 -21 -18 -20 -19 -43 -22 -379 l-3 -358 23 -26 23 -26 211 -4
c117 -2 217 -7 223 -10 7 -5 11 8 11 41 0 55 23 204 43 278 35 125 123 301
204 406 73 93 68 78 -18 -59 -48 -76 -136 -284 -164 -387 -15 -55 -30 -106
-33 -115 -3 -8 7 -1 22 17 15 18 42 41 61 53 18 11 49 42 67 68 53 73 52 72
16 61 -63 -18 -62 -8 1 24 61 30 67 36 107 111 90 168 107 286 49 346 -34 36
-73 39 -125 11z"/>
<path d="M217 1563 c79 -2 207 -2 285 0 79 1 15 3 -142 3 -157 0 -221 -2 -143
-3z"/>
<path d="M805 1118 c-32 -19 -44 -40 -45 -81 0 -53 12 -71 74 -111 29 -19 63
-44 75 -57 44 -48 12 -109 -57 -109 -39 0 -65 19 -90 65 -10 17 -11 14 -12
-22 0 -33 4 -42 18 -42 9 0 42 -3 73 -7 52 -6 58 -4 90 24 26 23 33 37 32 64
-1 51 -16 73 -82 117 -79 54 -91 67 -91 101 0 38 24 60 66 60 36 0 74 -28 74
-55 0 -8 5 -15 10 -15 6 0 10 15 10 34 0 32 -2 34 -46 40 -63 8 -75 7 -99 -6z"/>
<path d="M1130 1108 c-83 -43 -127 -141 -100 -223 17 -51 66 -104 117 -126 24
-10 57 -34 75 -54 17 -20 48 -45 69 -56 42 -21 114 -25 125 -7 5 8 2 9 -10 5
-27 -11 -79 17 -114 59 l-32 39 44 22 c70 35 100 82 104 162 3 59 0 71 -26
112 -52 81 -166 112 -252 67z m158 -8 c50 -31 75 -96 70 -181 -4 -72 -20 -104
-70 -142 -32 -24 -92 -26 -135 -4 -67 35 -98 180 -56 265 37 75 123 103 191
62z"/>
<path d="M1460 1123 c27 -11 30 -26 30 -185 0 -151 -1 -157 -22 -172 -21 -15
-14 -16 100 -16 l122 0 0 27 c0 25 -1 25 -13 9 -16 -22 -96 -33 -126 -17 -20
11 -21 18 -21 169 0 159 3 174 30 185 8 3 -14 5 -50 5 -36 0 -58 -2 -50 -5z"/>
<path d="M1765 1051 c-8 -15 3 -31 21 -31 9 0 14 7 12 17 -4 20 -24 28 -33 14z"/>
<path d="M1927 997 c-10 -16 -28 -32 -40 -37 l-22 -9 23 0 c24 -1 25 -7 22
-94 -3 -78 7 -107 37 -107 26 0 98 38 89 47 -3 3 -15 -2 -28 -11 -12 -9 -30
-16 -40 -16 -16 0 -18 10 -18 89 l0 90 33 4 32 4 -32 1 c-28 2 -32 6 -35 34
l-3 32 -18 -27z"/>
<path d="M1763 963 c-29 -6 -30 -23 -2 -23 20 0 21 -4 17 -92 l-3 -93 25 0 25
0 -3 95 c-4 129 -2 124 -59 113z"/>
<path d="M2124 959 c-56 -28 -74 -140 -29 -184 32 -33 95 -35 125 -3 25 27 27
47 3 26 -45 -38 -95 -32 -114 14 -10 25 -10 31 2 39 10 6 10 9 2 9 -18 0 -16
41 3 68 22 32 58 26 62 -10 3 -21 -3 -30 -25 -42 -17 -9 -22 -15 -12 -16 16 0
67 34 81 55 11 15 10 22 -8 39 -17 18 -58 20 -90 5z"/>
<path d="M491 684 c0 -11 3 -14 6 -6 3 7 2 16 -1 19 -3 4 -6 -2 -5 -13z"/>
</g>
</svg>
